<?xml version="1.0" encoding="UTF-8"?>
<!-- Android adaptive foreground: same tile + brain, transparent outside (backgroundColor in app.json). -->
<svg xmlns="http://www.w3.org/2000/svg" width="1024" height="1024" viewBox="0 0 1024 1024">
  <rect x="162" y="162" width="700" height="700" rx="203" ry="203" fill="#f4f4f5"/>
  <g
    transform="translate(512,512) scale(18) translate(-12,-12)"
    fill="none"
    stroke="#09090b"
    stroke-width="1.35"
    stroke-linecap="round"
    stroke-linejoin="round"
  >
    <path d="M12 5a3 3 0 1 0-5.997.125 4 4 0 0 0-2.526 5.77 4 4 0 0 0 .556 6.588A4 4 0 1 0 12 18Z" />
    <path d="M12 5a3 3 0 1 1 5.997.125 4 4 0 0 1 2.526 5.77 4 4 0 0 1-.556 6.588A4 4 0 1 1 12 18Z" />
    <path d="M15 13a4.5 4.5 0 0 1-3-4 4.5 4.5 0 0 1-3 4" />
    <path d="M17.599 6.5a3 3 0 0 0 .399-1.375" />
    <path d="M6.003 5.125A3 3 0 0 0 6.401 6.5" />
    <path d="M3.477 10.896a4 4 0 0 1 .585-.396" />
    <path d="M19.938 10.5a4 4 0 0 1 .585.396" />
    <path d="M6 18a4 4 0 0 1-1.967-.516" />
    <path d="M19.967 17.484A4 4 0 0 1 18 18" />
  </g>
</svg>
